<?xml version="1.0" encoding="utf-8"?>
<!-- Generator: Adobe Illustrator 16.0.0, SVG Export Plug-In . SVG Version: 6.00 Build 0)  -->
<!DOCTYPE svg PUBLIC "-//W3C//DTD SVG 1.1//EN" "http://www.w3.org/Graphics/SVG/1.1/DTD/svg11.dtd">
<svg version="1.1" id="row_1" xmlns="http://www.w3.org/2000/svg" xmlns:xlink="http://www.w3.org/1999/xlink" x="0px" y="0px"
	 width="100px" height="100px" viewBox="0 0 100 100" enable-background="new 0 0 100 100" xml:space="preserve">
<g id="home">
	<g>
		<g>
			<path fill="none" stroke="#000000" stroke-width="2" stroke-miterlimit="10" d="M51.414,27.414c-0.778-0.778-2.05-0.778-2.828,0
				L27.414,48.586C26.636,49.364,26,50.9,26,52v20c0,1.1,0.9,2,2,2h7.5c1.1,0,2.9,0,4,0H40c1.1,0,2-0.9,2-2v-5.911
				c0-1.1,0.333-2.836,0.739-3.858c0,0,2.842-7.142,7.261-7.142s7.261,7.142,7.261,7.142C57.667,63.252,58,64.989,58,66.089V72
				c0,1.1,0.9,2,2,2h0.5c1.1,0,2.9,0,4,0H72c1.1,0,2-0.9,2-2V52c0-1.1-0.636-2.636-1.414-3.414L51.414,27.414z"/>
		</g>
	</g>
</g>
</svg>
